<?xml version="1.0" encoding="utf-8"?>
<!-- Generator: Adobe Illustrator 21.1.0, SVG Export Plug-In . SVG Version: 6.00 Build 0)  -->
<svg version="1.1" id="Layer_1" xmlns="http://www.w3.org/2000/svg" xmlns:xlink="http://www.w3.org/1999/xlink" x="0px" y="0px"
	 viewBox="0 0 1336 820" style="enable-background:new 0 0 1336 820;" xml:space="preserve">
<title>Logo/Gradient</title>
<desc>Created with Sketch.</desc>
<path id="XMLID_131_" d="M147.5,520.6l210.9-88.7v77.3l-141.3,61.9v104.6l-69.5,27.9v-183H147.5z M307.1,89.7
	c109.4,0,199.3,86.7,199.3,203.5v231.1c-4.5,91.5,72.7,166.1,161.9,166.1s159-74.6,159-166.2V267.7l-69.6,27.9v228.6
	c0,50.2-40.8,91.1-89.4,91.1c-48.7,0-90.1-40.9-90.1-91.1v-231c0-153.7-121.1-278.6-271.1-278.6s-274,124.9-274,278.6v452.4
	l76.3-28.5V293.2C109.4,180.9,197.7,89.7,307.1,89.7 M1032,690.4c91.2,0,163.1-74.6,163.1-166.2V120.3l-69.5,27.9v376
	c0,49.3-43.8,91.1-93.6,91.1c-49.8,0-90.4-41.8-90.4-91.1V224.8l-76.3,28.9v270.5C865.3,615.8,940.8,690.4,1032,690.4 M1233.2,106
	v418.2c0,112.3-90.2,205.2-201.6,205.2c-81.4,0-154.1-50.1-186.2-120.1C814,679.2,747.9,729.4,668,729.4
	c-109.4,0-197.4-92.9-197.4-205.2v-231c0-91.6-74.2-166-163.4-166s-159.6,74.4-159.6,166v183.2l210.9-88.9V311L217,373.4v-80.2
	c0-50.2,41-90.9,89.7-90.9c46.1,0,90.7,39.8,90.7,90.9c1.4,2.6-0.1,231.1-0.1,231.1c1.3,152.6,121,281.1,270.2,281.1
	c69.3,0,130.9-32,179-75.9c48.7,43.9,114.8,75.9,185.1,75.9c152,0,271.2-127.4,271.2-281.1V79.1L1233.2,106z"/>
</svg>
